HIERARCHY
ROOT mixamorig:Hips
{
  OFFSET 0.000000 0.000000 0.000000
  CHANNELS 6 Xposition Yposition Zposition Zrotation Xrotation Yrotation
  JOINT mixamorig:Spine
  {
    OFFSET 0.000000 9.878500 1.258800
    CHANNELS 3 Zrotation Xrotation Yrotation
    JOINT mixamorig:Spine1
    {
      OFFSET 0.000000 11.272100 0.038100
      CHANNELS 3 Zrotation Xrotation Yrotation
      JOINT mixamorig:Spine2
      {
        OFFSET 0.000000 10.749001 -0.597600
        CHANNELS 3 Zrotation Xrotation Yrotation
        JOINT mixamorig:Neck
        {
          OFFSET 0.000000 12.015200 -1.691700
          CHANNELS 3 Zrotation Xrotation Yrotation
          JOINT mixamorig:Head
          {
            OFFSET 0.000000 8.810500 2.213900
            CHANNELS 3 Zrotation Xrotation Yrotation
            End Site
            {
              OFFSET 0.000000 18.232300 3.738000
            }
          }
        }
        JOINT mixamorig:LeftShoulder
        {
          OFFSET 6.002800 8.887900 -2.628900
          CHANNELS 3 Zrotation Xrotation Yrotation
          JOINT mixamorig:LeftArm
          {
            OFFSET 12.046300 0.000000 0.000000
            CHANNELS 3 Zrotation Xrotation Yrotation
            JOINT mixamorig:LeftForeArm
            {
              OFFSET 27.876501 0.000000 0.000000
              CHANNELS 3 Zrotation Xrotation Yrotation
              JOINT mixamorig:LeftHand
              {
                OFFSET 25.438500 0.000000 0.000000
                CHANNELS 3 Zrotation Xrotation Yrotation
                End Site
                {
                  OFFSET 10.0 0.0 0.0
                }
              }
            }
          }
        }
        JOINT mixamorig:RightShoulder
        {
          OFFSET -6.002800 8.887900 -2.628900
          CHANNELS 3 Zrotation Xrotation Yrotation
          JOINT mixamorig:RightArm
          {
            OFFSET -12.046300 0.000000 0.000000
            CHANNELS 3 Zrotation Xrotation Yrotation
            JOINT mixamorig:RightForeArm
            {
              OFFSET -27.876501 0.000000 0.000000
              CHANNELS 3 Zrotation Xrotation Yrotation
              JOINT mixamorig:RightHand
              {
                OFFSET -25.438500 0.000000 0.000000
                CHANNELS 3 Zrotation Xrotation Yrotation
                End Site
                {
                  OFFSET -10.0 0.0 0.0
                }
              }
            }
          }
        }
      }
    }
  }
}
MOTION
Frames: 26
Frame Time: 0.033333
46.5934 -102.5705 -0.0133 0.0000 0.0000 0.0000 -0.0658 -26.2987 0.0154 0.0000 0.0000 0.0000 0.0000 0.0000 0.0000 0.0000 0.0000 0.0000 0.0000 0.0000 0.0000 0.0000 0.0000 0.0000 -82.2266 -10.3138 -11.8074 -79.3094 21.4618 25.7568 0.0000 0.0000 0.0000 0.0000 0.0000 0.0000 84.3277 -1.6833 1.8587 74.4207 22.9750 -29.9668 0.0000 0.0000 0.0000
46.7276 -102.6978 -0.0139 0.0000 0.0000 0.0000 0.0840 -25.8972 -0.0193 0.0000 0.0000 0.0000 0.0000 0.0000 0.0000 0.0000 0.0000 0.0000 0.0000 0.0000 0.0000 0.0000 0.0000 0.0000 -81.9221 -10.7652 -12.3891 -79.1629 21.3741 25.7173 0.0000 0.0000 0.0000 0.0000 0.0000 0.0000 84.3631 -1.1294 1.2464 75.0371 22.6467 -29.2329 0.0000 0.0000 0.0000
46.8614 -102.8186 -0.0139 0.0000 0.0000 0.0000 0.2395 -26.1131 -0.0555 0.0000 0.0000 0.0000 0.0000 0.0000 0.0000 0.0000 0.0000 0.0000 0.0000 0.0000 0.0000 0.0000 0.0000 0.0000 -81.9481 -10.6463 -12.2469 -77.7615 22.2034 27.3541 0.0000 0.0000 0.0000 0.0000 0.0000 0.0000 84.4084 -1.7433 1.9223 75.4619 22.3652 -28.6644 0.0000 0.0000 0.0000
46.8870 -102.8142 -0.0148 0.0000 0.0000 0.0000 0.2693 -25.6369 -0.0613 0.0000 0.0000 0.0000 0.0000 0.0000 0.0000 0.0000 0.0000 0.0000 0.0000 0.0000 0.0000 0.0000 0.0000 0.0000 -82.1554 -10.3580 -11.8728 -79.2018 20.6488 24.8367 0.0000 0.0000 0.0000 0.0000 0.0000 0.0000 84.1960 -4.0923 4.5290 79.6427 18.7528 -22.4038 0.0000 0.0000 0.0000
46.8975 -102.7637 -0.0149 0.0000 0.0000 0.0000 0.2688 -25.9325 -0.0619 0.0000 0.0000 0.0000 0.0000 0.0000 0.0000 0.0000 0.0000 0.0000 0.0000 0.0000 0.0000 0.0000 0.0000 0.0000 -82.5595 -9.1433 -10.4084 -77.5428 21.8559 27.0330 0.0000 0.0000 0.0000 0.0000 0.0000 0.0000 84.2596 -3.6674 4.0542 78.2227 20.2857 -24.8199 0.0000 0.0000 0.0000
46.9207 -102.7988 -0.0145 0.0000 0.0000 0.0000 0.2788 -26.6637 -0.0661 0.0000 0.0000 0.0000 0.0000 0.0000 0.0000 0.0000 0.0000 0.0000 0.0000 0.0000 0.0000 0.0000 0.0000 0.0000 -82.3755 -9.5909 -10.9525 -77.0860 22.1316 27.5856 0.0000 0.0000 0.0000 0.0000 0.0000 0.0000 84.1987 -3.8572 4.2686 78.1191 20.4173 -25.0239 0.0000 0.0000 0.0000
46.9221 -102.8726 -0.0146 0.0000 0.0000 0.0000 0.2820 -26.5575 -0.0666 0.0000 0.0000 0.0000 0.0000 0.0000 0.0000 0.0000 0.0000 0.0000 0.0000 0.0000 0.0000 0.0000 0.0000 0.0000 -82.2087 -9.9028 -11.3412 -76.4590 22.5316 28.3817 0.0000 0.0000 0.0000 0.0000 0.0000 0.0000 84.1568 -4.3122 4.7755 78.1081 20.4750 -25.0986 0.0000 0.0000 0.0000
46.9222 -102.9741 -0.0144 0.0000 0.0000 0.0000 0.2678 -27.1072 -0.0645 0.0000 0.0000 0.0000 0.0000 0.0000 0.0000 0.0000 0.0000 0.0000 0.0000 0.0000 0.0000 0.0000 0.0000 0.0000 -81.7058 -11.0186 -12.7282 -76.2873 22.6314 28.5899 0.0000 0.0000 0.0000 0.0000 0.0000 0.0000 84.0906 -4.5879 5.0867 77.7829 20.7019 -25.5166 0.0000 0.0000 0.0000
46.9266 -103.0370 -0.0148 0.0000 0.0000 0.0000 0.2714 -26.9691 -0.0651 0.0000 0.0000 0.0000 0.0000 0.0000 0.0000 0.0000 0.0000 0.0000 0.0000 0.0000 0.0000 0.0000 0.0000 0.0000 -81.7464 -10.8934 -12.5749 -76.3551 22.6168 28.5383 0.0000 0.0000 0.0000 0.0000 0.0000 0.0000 84.0128 -4.9935 5.5438 76.7422 21.5339 -27.0103 0.0000 0.0000 0.0000
46.9440 -103.0483 -0.0153 0.0000 0.0000 0.0000 0.2845 -26.0349 -0.0658 0.0000 0.0000 0.0000 0.0000 0.0000 0.0000 0.0000 0.0000 0.0000 0.0000 0.0000 0.0000 0.0000 0.0000 0.0000 -82.0199 -10.2823 -11.8141 -76.2009 22.7259 28.7501 0.0000 0.0000 0.0000 0.0000 0.0000 0.0000 84.0995 -4.4155 4.8948 77.5086 20.9109 -25.8936 0.0000 0.0000 0.0000
46.9775 -103.0495 -0.0158 0.0000 0.0000 0.0000 0.3169 -25.5541 -0.0719 0.0000 0.0000 0.0000 0.0000 0.0000 0.0000 0.0000 0.0000 0.0000 0.0000 0.0000 0.0000 0.0000 0.0000 0.0000 -82.6088 -8.9503 -10.1803 -73.9100 24.1619 31.7618 0.0000 0.0000 0.0000 0.0000 0.0000 0.0000 83.7460 -6.1546 6.8643 79.3102 19.2496 -23.1251 0.0000 0.0000 0.0000
46.9473 -103.0572 -0.0150 0.0000 0.0000 0.0000 0.2692 -25.4143 -0.0607 0.0000 0.0000 0.0000 0.0000 0.0000 0.0000 0.0000 0.0000 0.0000 0.0000 0.0000 0.0000 0.0000 0.0000 0.0000 -82.4857 -9.4559 -10.7778 -72.7613 24.7539 33.1729 0.0000 0.0000 0.0000 0.0000 0.0000 0.0000 83.9647 -5.1362 5.7069 76.8090 21.4054 -26.8204 0.0000 0.0000 0.0000
46.9724 -103.0338 -0.0158 0.0000 0.0000 0.0000 0.2996 -25.7175 -0.0684 0.0000 0.0000 0.0000 0.0000 0.0000 0.0000 0.0000 0.0000 0.0000 0.0000 0.0000 0.0000 0.0000 0.0000 0.0000 -82.2320 -9.8275 -11.2505 -72.8294 24.6849 33.0438 0.0000 0.0000 0.0000 0.0000 0.0000 0.0000 83.9439 -5.0860 5.6532 73.7313 23.3834 -30.8549 0.0000 0.0000 0.0000
47.0239 -103.0211 -0.0146 0.0000 0.0000 0.0000 0.3555 -26.4052 -0.0834 0.0000 0.0000 0.0000 0.0000 0.0000 0.0000 0.0000 0.0000 0.0000 0.0000 0.0000 0.0000 0.0000 0.0000 0.0000 -82.0901 -10.2367 -11.7473 -74.6236 23.6216 30.6860 0.0000 0.0000 0.0000 0.0000 0.0000 0.0000 84.3452 -2.5427 2.8068 74.5526 22.9104 -29.8160 0.0000 0.0000 0.0000
46.9609 -103.0030 -0.0147 0.0000 0.0000 0.0000 0.2790 -25.2419 -0.0625 0.0000 0.0000 0.0000 0.0000 0.0000 0.0000 0.0000 0.0000 0.0000 0.0000 0.0000 0.0000 0.0000 0.0000 0.0000 -82.5689 -9.0614 -10.3136 -74.3086 23.7315 30.9939 0.0000 0.0000 0.0000 0.0000 0.0000 0.0000 84.2161 -3.0241 3.3457 74.5451 22.8588 -29.7540 0.0000 0.0000 0.0000
46.9613 -102.9988 -0.0150 0.0000 0.0000 0.0000 0.2652 -25.9187 -0.0610 0.0000 0.0000 0.0000 0.0000 0.0000 0.0000 0.0000 0.0000 0.0000 0.0000 0.0000 0.0000 0.0000 0.0000 0.0000 -81.7835 -10.9675 -12.6521 -74.8023 23.4464 30.3690 0.0000 0.0000 0.0000 0.0000 0.0000 0.0000 84.1830 -3.2860 3.6375 72.0788 24.1628 -32.7855 0.0000 0.0000 0.0000
46.9639 -103.0637 -0.0155 0.0000 0.0000 0.0000 0.2527 -25.9305 -0.0582 0.0000 0.0000 0.0000 0.0000 0.0000 0.0000 0.0000 0.0000 0.0000 0.0000 0.0000 0.0000 0.0000 0.0000 0.0000 -81.8146 -10.7725 -12.4208 -73.3967 24.3769 32.3231 0.0000 0.0000 0.0000 0.0000 0.0000 0.0000 84.1859 -3.1954 3.5371 72.2676 24.0587 -32.5409 0.0000 0.0000 0.0000
46.9746 -103.1122 -0.0162 0.0000 0.0000 0.0000 0.2529 -25.4199 -0.0570 0.0000 0.0000 0.0000 0.0000 0.0000 0.0000 0.0000 0.0000 0.0000 0.0000 0.0000 0.0000 0.0000 0.0000 0.0000 -81.7429 -10.9086 -12.5932 -75.3965 23.1525 29.6895 0.0000 0.0000 0.0000 0.0000 0.0000 0.0000 83.1709 -7.7907 8.7757 78.3978 19.5107 -23.8087 0.0000 0.0000 0.0000
47.0313 -103.0501 -0.0162 0.0000 0.0000 0.0000 0.3140 -25.5894 -0.0713 0.0000 0.0000 0.0000 0.0000 0.0000 0.0000 0.0000 0.0000 0.0000 0.0000 0.0000 0.0000 0.0000 0.0000 0.0000 -81.6962 -10.8807 -12.5713 -76.2930 22.4447 28.3549 0.0000 0.0000 0.0000 0.0000 0.0000 0.0000 83.3006 -7.3026 8.2077 77.0687 20.7619 -25.9076 0.0000 0.0000 0.0000
47.0225 -102.8990 -0.0163 0.0000 0.0000 0.0000 0.2906 -25.0344 -0.0645 0.0000 0.0000 0.0000 0.0000 0.0000 0.0000 0.0000 0.0000 0.0000 0.0000 0.0000 0.0000 0.0000 0.0000 0.0000 -81.4889 -11.3537 -13.1643 -78.6010 20.6040 25.0412 0.0000 0.0000 0.0000 0.0000 0.0000 0.0000 83.3319 -7.0008 7.8643 76.1686 21.4963 -27.2326 0.0000 0.0000 0.0000
47.0202 -102.8911 -0.0162 0.0000 0.0000 0.0000 0.2450 -24.8322 -0.0539 0.0000 0.0000 0.0000 0.0000 0.0000 0.0000 0.0000 0.0000 0.0000 0.0000 0.0000 0.0000 0.0000 0.0000 0.0000 -81.9176 -10.7088 -12.3253 -78.1440 21.0243 25.7485 0.0000 0.0000 0.0000 0.0000 0.0000 0.0000 83.3977 -6.3282 7.1010 76.4969 21.2922 -26.8248 0.0000 0.0000 0.0000
47.0107 -102.8888 -0.0158 0.0000 0.0000 0.0000 0.1868 -24.3217 -0.0403 0.0000 0.0000 0.0000 0.0000 0.0000 0.0000 0.0000 0.0000 0.0000 0.0000 0.0000 0.0000 0.0000 0.0000 0.0000 -82.0892 -10.3098 -11.8312 -75.1115 23.2384 29.9445 0.0000 0.0000 0.0000 0.0000 0.0000 0.0000 82.8063 -7.5414 8.5496 75.5382 21.9817 -28.1435 0.0000 0.0000 0.0000
47.0017 -103.0163 -0.0169 0.0000 0.0000 0.0000 0.1523 -24.5027 -0.0331 0.0000 0.0000 0.0000 0.0000 0.0000 0.0000 0.0000 0.0000 0.0000 0.0000 0.0000 0.0000 0.0000 0.0000 0.0000 -81.8064 -10.8929 -12.5611 -76.0149 22.6875 28.7946 0.0000 0.0000 0.0000 0.0000 0.0000 0.0000 82.6614 -6.9636 7.9151 73.8778 23.1764 -30.5098 0.0000 0.0000 0.0000
47.0932 -103.0920 -0.0172 0.0000 0.0000 0.0000 0.2495 -24.3519 -0.0538 0.0000 0.0000 0.0000 0.0000 0.0000 0.0000 0.0000 0.0000 0.0000 0.0000 0.0000 0.0000 0.0000 0.0000 0.0000 -81.5618 -11.3500 -13.1432 -77.6210 21.5175 26.5838 0.0000 0.0000 0.0000 0.0000 0.0000 0.0000 82.2515 -7.1467 8.1816 74.3332 23.4640 -30.6385 0.0000 0.0000 0.0000
47.0931 -102.8420 -0.0171 0.0000 0.0000 0.0000 0.2286 -25.4983 -0.0517 0.0000 0.0000 0.0000 0.0000 0.0000 0.0000 0.0000 0.0000 0.0000 0.0000 0.0000 0.0000 0.0000 0.0000 0.0000 -82.2164 -9.9352 -11.3768 -76.2983 22.4329 28.3376 0.0000 0.0000 0.0000 0.0000 0.0000 0.0000 82.8183 -2.1984 2.4927 73.0345 24.7599 -33.0246 0.0000 0.0000 0.0000
47.0975 -102.4356 -0.0170 0.0000 0.0000 0.0000 0.2410 -25.6112 -0.0548 0.0000 0.0000 0.0000 0.0000 0.0000 0.0000 0.0000 0.0000 0.0000 0.0000 0.0000 0.0000 0.0000 0.0000 0.0000 -82.1314 -10.0335 -11.5062 -76.7785 22.1553 27.7614 0.0000 0.0000 0.0000 0.0000 0.0000 0.0000 82.5120 -1.1904 1.3571 65.3376 28.8888 -43.7714 0.0000 0.0000 0.0000
